<?xml version="1.0" encoding="UTF-8" standalone="no"?>
<!-- Created with Inkscape (http://www.inkscape.org/) -->
<svg
   xmlns:dc="http://purl.org/dc/elements/1.1/"
   xmlns:cc="http://creativecommons.org/ns#"
   xmlns:rdf="http://www.w3.org/1999/02/22-rdf-syntax-ns#"
   xmlns:svg="http://www.w3.org/2000/svg"
   xmlns="http://www.w3.org/2000/svg"
   xmlns:sodipodi="http://sodipodi.sourceforge.net/DTD/sodipodi-0.dtd"
   xmlns:inkscape="http://www.inkscape.org/namespaces/inkscape"
   width="534.69879"
   height="146.84772"
   id="svg2"
   sodipodi:version="0.32"
   inkscape:version="0.46"
   sodipodi:docname="mokopedia_logo.svg"
   inkscape:output_extension="org.inkscape.output.svg.inkscape"
   version="1.0"
   inkscape:export-filename="/home/josch/Desktop/mokopedia/mokopedia_logo_small.png"
   inkscape:export-xdpi="55.159184"
   inkscape:export-ydpi="55.159184">
  <defs
     id="defs4">
    <inkscape:perspective
       sodipodi:type="inkscape:persp3d"
       inkscape:vp_x="0 : 526.18109 : 1"
       inkscape:vp_y="0 : 1000 : 0"
       inkscape:vp_z="744.09448 : 526.18109 : 1"
       inkscape:persp3d-origin="372.04724 : 350.78739 : 1"
       id="perspective10" />
    <inkscape:perspective
       id="perspective2400"
       inkscape:persp3d-origin="372.04724 : 350.78739 : 1"
       inkscape:vp_z="744.09448 : 526.18109 : 1"
       inkscape:vp_y="0 : 1000 : 0"
       inkscape:vp_x="0 : 526.18109 : 1"
       sodipodi:type="inkscape:persp3d" />
  </defs>
  <sodipodi:namedview
     id="base"
     pagecolor="#ffffff"
     bordercolor="#666666"
     borderopacity="1.0"
     gridtolerance="10000"
     guidetolerance="10"
     objecttolerance="10"
     inkscape:pageopacity="0.0"
     inkscape:pageshadow="2"
     inkscape:zoom="0.98994949"
     inkscape:cx="250.6005"
     inkscape:cy="175.6947"
     inkscape:document-units="px"
     inkscape:current-layer="layer1"
     showgrid="false"
     inkscape:window-width="1296"
     inkscape:window-height="653"
     inkscape:window-x="30"
     inkscape:window-y="169" />
  <metadata
     id="metadata7">
    <rdf:RDF>
      <cc:Work
         rdf:about="">
        <dc:format>image/svg+xml</dc:format>
        <dc:type
           rdf:resource="http://purl.org/dc/dcmitype/StillImage" />
      </cc:Work>
    </rdf:RDF>
  </metadata>
  <g
     inkscape:label="Layer 1"
     inkscape:groupmode="layer"
     id="layer1"
     transform="translate(-232.85728,-87.889722)">
    <path
       style="font-size:38px;font-style:italic;font-variant:normal;font-weight:bold;font-stretch:normal;fill:#000000;fill-opacity:1;stroke:none;stroke-width:1px;stroke-linecap:butt;stroke-linejoin:miter;stroke-opacity:1;font-family:Hoefler Text;-inkscape-font-specification:Hoefler Text Bold Italic"
       d="M 271.42447,190.38413 C 269.56508,190.74694 266.02769,191.01905 257.72845,191.01905 C 249.47458,191.01905 245.39297,190.74694 243.62428,190.38413 C 242.85331,193.28658 242.12769,195.50879 241.08462,198.27521 C 240.99392,198.45662 241.12998,198.68337 241.62884,198.68337 C 242.037,198.68337 242.26375,198.50197 242.35444,198.27521 C 243.80569,194.91924 246.79886,192.47027 250.78974,192.47027 L 253.148,192.47027 C 254.59923,192.47027 255.00739,192.83308 254.68993,194.19361 L 249.20246,217.23194 C 248.65824,219.54483 248.47684,220.54256 243.94173,221.04142 C 243.66963,221.08678 243.44287,221.49494 243.44287,221.90309 C 243.44287,222.2659 243.53358,222.31126 243.66963,222.31126 C 246.34535,222.31126 247.97798,222.03914 250.38158,222.03914 C 252.78519,222.03914 254.32712,222.31126 257.32029,222.31126 C 257.59239,222.31126 257.86451,221.85773 257.86451,221.44959 C 257.86451,221.22283 257.77381,221.08678 257.59239,221.04142 C 254.41783,220.67862 253.55616,220.0437 253.55616,218.77387 C 253.55616,218.32036 253.69221,217.82149 253.82826,217.23194 L 259.31574,194.19361 C 259.6332,192.83308 260.17741,192.47027 261.62864,192.47027 L 262.85312,192.47027 C 267.16146,192.47027 269.29296,193.7401 269.61043,198.32056 C 269.61043,198.59266 269.88253,198.68337 270.24534,198.68337 C 270.60815,198.68337 270.88025,198.59266 270.88025,198.32056 C 270.88025,195.78091 271.06165,193.10518 271.42447,190.38413 M 288.79037,206.5291 C 288.79037,203.80803 287.11238,202.0847 285.25299,202.0847 C 281.3528,202.0847 278.17823,205.48603 275.63856,209.38621 L 281.48885,190.83763 C 281.67026,190.33878 281.71561,189.97597 281.71561,189.65851 C 281.71561,189.38641 281.5342,189.15965 281.2621,189.15965 C 280.94463,189.15965 280.67253,189.34105 280.49113,189.47711 C 279.2213,190.29341 276.04673,191.5179 274.05128,191.88072 C 273.82452,191.88072 273.73382,192.10747 273.73382,192.42492 C 273.73382,192.74238 273.91523,192.96914 274.14198,193.01449 C 275.45717,193.15054 276.13743,193.46799 276.13743,194.10291 C 276.13743,194.60176 276.04673,195.19134 275.72927,196.14371 L 267.70213,221.7217 C 267.52073,222.22054 268.60915,222.49266 269.24407,222.49266 C 269.92434,222.49266 271.14881,222.22054 271.28487,221.7217 C 274.45944,210.65604 280.49113,204.9418 282.89473,204.9418 C 283.89246,204.9418 284.48202,205.93953 284.48202,207.48147 C 284.48202,214.55622 281.3528,220.40651 279.94692,220.40651 C 279.26665,220.40651 278.85849,218.81923 277.3619,218.81923 C 276.04673,218.81923 275.1397,219.6809 275.1397,220.90537 C 275.1397,222.35659 276.63629,223.03687 277.72472,223.03687 C 281.21675,223.03687 288.79037,214.69227 288.79037,206.5291 M 305.44271,205.48603 C 305.44271,203.67198 304.44497,202.0847 301.99602,202.0847 C 297.41558,202.0847 290.97573,210.20252 290.97573,217.27729 C 290.97573,219.95299 292.74442,223.03687 296.05504,223.03687 C 299.411,223.03687 302.44954,218.95527 303.31121,217.14124 C 303.49261,216.77843 302.81235,216.09817 302.58559,216.37027 C 301.76927,217.64009 300.18198,219.72625 297.46093,219.72625 C 295.69223,219.72625 295.05732,218.59246 295.05732,216.00746 C 295.05732,215.3272 295.10266,214.46551 295.19337,213.55851 C 300.90759,213.55851 305.44271,209.3862 305.44271,205.48603 M 302.22278,206.25699 C 302.22278,207.66285 300.59013,212.10727 295.46548,212.10727 C 296.19109,208.07103 298.18654,204.35225 300.5448,204.35225 C 301.72392,204.35225 302.22278,205.07786 302.22278,206.25699 M 344.38081,198.32056 C 344.24476,196.68793 344.15407,195.14597 344.15407,193.5587 C 344.15407,192.60632 344.19942,191.56323 344.24476,190.74694 C 341.88651,190.88299 335.62807,191.01905 333.13376,191.01905 C 330.68481,191.01905 324.24496,190.88299 321.88671,190.74694 C 321.56925,190.74694 321.34249,191.2458 321.34249,191.65396 C 321.34249,191.83536 321.38785,192.01677 321.56925,192.01677 C 324.74381,192.42491 325.60548,193.05984 325.60548,194.32966 C 325.60548,194.78317 325.51478,195.28204 325.37874,195.8716 L 320.29942,217.23194 C 319.70985,219.54483 319.57379,220.54256 315.03869,221.04142 C 314.76659,221.08678 314.49449,221.49494 314.49449,221.90309 C 314.49449,222.2659 314.63054,222.31126 314.72124,222.31126 C 317.4423,222.31126 319.07494,222.03914 321.43319,222.03914 C 323.83679,222.03914 325.37874,222.31126 328.3719,222.31126 C 328.68936,222.31126 328.91612,221.85773 328.91612,221.44959 C 328.91612,221.22283 328.82542,221.08678 328.68936,221.04142 C 325.51478,220.67862 324.65312,220.0437 324.65312,218.77387 C 324.65312,218.32036 324.74381,217.82149 324.87987,217.23194 L 327.32883,206.93725 L 332.3628,206.93725 C 334.90245,206.93725 335.85483,207.66287 335.31061,212.19797 C 335.31061,212.37938 335.44666,212.56079 335.94552,212.56079 C 336.26298,212.56079 336.53509,212.47008 336.58044,212.19797 C 337.12465,209.88508 337.30605,208.43383 337.80492,206.30234 C 338.34913,204.17084 338.62124,203.35451 339.16545,201.08698 C 339.2108,200.86022 338.93869,200.72416 338.53054,200.72416 C 338.16772,200.72416 337.98632,200.90557 337.89562,201.08698 C 336.44438,205.1232 335.12921,205.48603 332.68025,205.48603 L 327.69164,205.48603 L 330.14059,195.19134 C 330.63945,192.96914 332.22674,192.47027 333.40587,192.47027 L 336.7165,192.47027 C 340.66203,192.47027 342.56677,194.19361 343.11099,198.32056 C 343.11099,198.54731 343.38309,198.68337 343.7459,198.68337 C 344.10871,198.68337 344.38081,198.54731 344.38081,198.32056 M 361.06716,204.62436 C 361.06716,202.90102 359.66127,202.0847 358.16469,202.0847 C 355.35294,202.0847 352.67722,206.07558 350.59107,209.79437 L 351.45274,207.34542 C 351.90625,206.03023 352.17836,204.9418 352.17836,204.12549 C 352.17836,202.81031 351.27134,202.0847 349.8201,202.0847 C 347.0537,202.0847 343.01745,207.48147 343.01745,207.84428 C 343.01745,208.07103 343.28955,208.61525 343.78841,208.61525 C 344.24193,208.61525 346.28272,204.98716 347.46185,204.98716 C 347.73395,204.98716 347.91536,205.16856 347.91536,205.53138 C 347.91536,205.98487 347.6886,206.66514 347.32579,207.75357 L 342.56394,221.7217 C 342.38254,222.22054 343.42561,222.49266 344.10587,222.49266 C 345.1036,222.49266 345.91992,222.26589 346.14667,221.7217 C 349.45729,213.96666 353.99241,205.57673 356.12389,205.57673 C 357.34838,205.57673 357.34838,207.11866 358.89031,207.11866 C 359.88803,207.11866 361.06716,206.34768 361.06716,204.62436 M 374.70932,205.48603 C 374.70932,203.67198 373.7116,202.0847 371.26265,202.0847 C 366.68219,202.0847 360.24234,210.20252 360.24234,217.27729 C 360.24234,219.95299 362.01103,223.03687 365.32165,223.03687 C 368.67764,223.03687 371.71615,218.95527 372.57782,217.14124 C 372.75923,216.77843 372.07896,216.09817 371.8522,216.37027 C 371.03589,217.64009 369.4486,219.72625 366.72754,219.72625 C 364.95885,219.72625 364.32394,218.59246 364.32394,216.00746 C 364.32394,215.3272 364.36928,214.46551 364.45999,213.55851 C 370.1742,213.55851 374.70932,209.3862 374.70932,205.48603 M 371.4894,206.25699 C 371.4894,207.66285 369.85675,212.10727 364.7321,212.10727 C 365.45771,208.07103 367.45315,204.35225 369.81141,204.35225 C 370.99053,204.35225 371.4894,205.07786 371.4894,206.25699 M 390.74162,205.48603 C 390.74162,203.67198 389.74389,202.0847 387.29494,202.0847 C 382.7145,202.0847 376.27464,210.20252 376.27464,217.27729 C 376.27464,219.95299 378.04334,223.03687 381.35395,223.03687 C 384.70992,223.03687 387.74845,218.95527 388.61011,217.14124 C 388.79153,216.77843 388.11126,216.09817 387.8845,216.37027 C 387.06818,217.64009 385.4809,219.72625 382.75984,219.72625 C 380.99115,219.72625 380.35623,218.59246 380.35623,216.00746 C 380.35623,215.3272 380.40158,214.46551 380.49228,213.55851 C 386.20651,213.55851 390.74162,209.3862 390.74162,205.48603 M 387.52169,206.25699 C 387.52169,207.66285 385.88906,212.10727 380.76439,212.10727 C 381.49001,208.07103 383.48546,204.35225 385.8437,204.35225 C 387.02284,204.35225 387.52169,205.07786 387.52169,206.25699 M 445.82469,191.20045 C 445.82469,190.83763 445.73399,190.74694 445.59795,190.74694 C 443.60251,190.74694 442.55942,191.01905 440.70003,191.01905 C 439.11276,191.01905 437.97897,190.74694 436.21028,190.74694 L 422.28751,215.46325 L 418.97688,190.74694 C 417.34426,190.74694 415.98372,191.01905 414.39644,191.01905 C 413.12661,191.01905 411.0858,190.74694 409.95203,190.74694 C 409.63459,190.74694 409.40782,191.2458 409.40782,191.65396 C 409.40782,191.83536 409.45316,192.01677 409.63458,192.01677 C 413.98827,192.47026 414.48713,193.51335 413.76152,195.8716 L 406.32395,217.23194 C 405.55299,219.54483 404.73666,220.54256 400.33761,221.04142 C 400.02017,221.08678 399.7934,221.49494 399.7934,221.90309 C 399.7934,222.2659 399.8841,222.31126 400.02015,222.31126 C 402.1063,222.31126 403.875,222.03914 406.0972,222.03914 C 408.27404,222.03914 409.86134,222.31126 412.17423,222.31126 C 412.44634,222.31126 412.71843,221.85773 412.71843,221.44959 C 412.71843,221.22283 412.62774,221.08678 412.49169,221.04142 C 408.09265,220.54256 407.7752,219.54483 408.54614,217.23194 L 415.12205,196.32511 L 418.79549,222.67406 C 418.79549,222.85547 419.02224,223.03687 419.33969,223.03687 C 419.70251,223.03687 419.92926,222.90082 420.06531,222.67406 L 435.21255,195.46344 L 432.03799,217.23194 C 431.67519,219.77159 430.8135,220.58792 426.82261,221.04142 C 426.55052,221.08678 426.2784,221.49494 426.2784,221.90309 C 426.2784,222.2659 426.41445,222.31126 426.55051,222.31126 C 429.54368,222.31126 430.81352,222.03914 433.62527,222.03914 C 436.43704,222.03914 437.66152,222.31126 440.65467,222.31126 C 440.92679,222.31126 441.1989,221.85773 441.1989,221.44959 C 441.1989,221.22283 441.10819,221.08678 440.92679,221.04142 C 436.4824,220.54256 436.52775,219.54483 436.84519,217.23194 L 439.79301,195.8716 C 440.24652,193.51335 440.9268,192.51561 445.32583,192.01677 C 445.6433,192.01677 445.82469,191.56325 445.82469,191.20045 M 461.92362,209.06875 C 461.92362,204.71506 459.1572,202.0847 456.48149,202.0847 C 451.08473,202.0847 445.09837,209.2955 445.09837,216.09817 C 445.09837,220.4065 447.81943,223.03687 450.49515,223.03687 C 455.93727,223.03687 461.92362,215.82604 461.92362,209.06875 M 458.20483,206.12094 C 458.20483,213.51315 453.48832,221.58565 450.5405,221.58565 C 449.08927,221.58565 448.77181,220.81466 448.77181,219.00063 C 448.77181,211.65377 453.53367,203.58128 456.48149,203.58128 C 457.88737,203.58128 458.20483,204.30689 458.20483,206.12094 M 482.91972,206.57445 C 482.91972,203.26382 481.60454,202.0847 480.15331,202.0847 C 477.74971,202.0847 474.34837,204.08014 471.03775,209.2955 L 478.11251,190.83763 C 478.33927,190.33878 478.42997,189.97597 478.42997,189.65851 C 478.42997,189.38641 478.29391,189.15965 477.97646,189.15965 C 477.659,189.15965 477.38689,189.34105 477.20549,189.47711 C 475.84496,190.29341 472.62503,191.5179 470.62958,191.88072 C 470.35748,191.88072 470.26678,192.10747 470.26678,192.42492 C 470.26678,192.74238 470.40284,192.96914 470.62958,193.01449 C 471.89942,193.15054 472.53433,193.46799 472.53433,194.10291 C 472.53433,194.55641 472.39827,195.19134 472.03547,196.14371 L 464.82466,214.96439 C 464.1444,216.73306 463.82693,218.22966 463.82693,219.40878 C 463.82693,221.76703 465.23282,223.03687 468.08993,223.03687 C 473.1239,223.03687 482.91972,214.10271 482.91972,206.57445 M 479.24629,207.84428 C 479.24629,211.42699 474.30302,220.58792 469.17836,220.58792 C 468.18063,220.58792 467.81783,220.0437 467.81783,218.72853 C 467.81783,214.42018 474.48444,205.57673 477.5683,205.57673 C 478.70207,205.57673 479.24629,206.3477 479.24629,207.84428 M 498.21295,193.5587 C 498.21295,192.15282 497.07916,190.97369 495.67328,190.97369 C 494.22206,190.97369 493.08828,192.15282 493.08828,193.5587 C 493.08828,194.96457 494.22206,196.09835 495.67328,196.09835 C 497.07916,196.09835 498.21295,194.96457 498.21295,193.5587 M 495.53724,203.98944 C 495.53724,202.71961 494.76626,202.0847 493.40574,202.0847 C 490.59397,202.0847 485.74141,207.79892 485.74141,208.20708 C 485.74141,208.47919 485.96816,208.97805 486.42168,208.97805 C 486.78449,208.97805 489.59625,204.98716 490.77538,204.98716 C 491.04749,204.98716 491.18354,205.16856 491.18354,205.44067 C 491.18354,205.89416 490.95679,206.66514 490.41256,207.75357 L 485.46931,217.7308 C 484.87974,219.00062 484.47158,220.1344 484.47158,221.04142 C 484.47158,222.22054 485.10649,223.03687 486.64843,223.03687 C 489.41483,223.03687 494.31276,217.27729 494.31276,216.91449 C 494.31276,216.64237 494.04065,216.14352 493.58715,216.14352 C 493.13363,216.14352 490.45792,220.1344 489.23345,220.1344 C 488.96134,220.1344 488.87063,219.95301 488.87063,219.5902 C 488.87063,218.95529 489.09739,218.4564 489.6416,217.36799 L 494.58487,207.34542 C 495.26513,205.93953 495.53724,205.16855 495.53724,203.98944 M 512.23349,189.65851 C 512.23349,189.38641 512.09744,189.15965 511.77999,189.15965 C 511.46253,189.15965 511.23577,189.34105 511.00901,189.47711 C 509.69384,190.29341 506.47392,191.5179 504.43312,191.88072 C 504.20636,191.88072 504.0703,192.10747 504.0703,192.42492 C 504.0703,192.74238 504.20636,192.96914 504.43312,193.01449 C 505.70294,193.15054 506.33786,193.46799 506.33786,194.10291 C 506.33786,194.55641 506.2018,195.19134 505.83899,196.14371 L 497.58511,217.7308 C 497.17696,218.86456 496.9502,219.81696 496.9502,220.63327 C 496.9502,222.12983 497.67581,223.03687 499.3538,223.03687 C 502.16556,223.03687 506.65531,217.09587 506.60997,216.68773 C 506.56461,216.41562 506.29251,215.91676 505.83899,215.91676 C 505.34014,215.91676 503.25399,219.72625 501.71206,219.72625 C 501.34925,219.72625 501.21319,219.45413 501.21319,219.04599 C 501.21319,218.50177 501.80275,217.14123 502.07486,216.41562 L 511.96138,190.83763 C 512.14279,190.33878 512.23349,189.97597 512.23349,189.65851 M 523.96029,205.48603 C 523.96029,203.67198 522.96256,202.0847 520.5136,202.0847 C 515.93316,202.0847 509.4933,210.20252 509.4933,217.27729 C 509.4933,219.95299 511.26201,223.03687 514.57261,223.03687 C 517.92859,223.03687 520.96711,218.95527 521.82878,217.14124 C 522.01019,216.77843 521.32992,216.09817 521.10317,216.37027 C 520.28685,217.64009 518.69956,219.72625 515.9785,219.72625 C 514.20981,219.72625 513.57489,218.59246 513.57489,216.00746 C 513.57489,215.3272 513.62025,214.46551 513.71095,213.55851 C 519.42518,213.55851 523.96029,209.3862 523.96029,205.48603 M 520.74035,206.25699 C 520.74035,207.66285 519.10772,212.10727 513.98306,212.10727 C 514.70867,208.07103 516.70412,204.35225 519.06237,204.35225 C 520.2415,204.35225 520.74035,205.07786 520.74035,206.25699 M 562.39955,190.74694 C 560.04129,190.88299 553.87354,191.01905 551.42459,191.01905 C 548.93029,191.01905 542.76254,190.88299 540.40428,190.74694 C 540.1322,190.74694 539.86007,191.2458 539.86007,191.65396 C 539.86007,191.83536 539.95077,192.01677 540.08683,192.01677 C 543.30675,192.42491 544.12307,193.05984 544.12307,194.32966 C 544.12307,194.78317 544.03236,195.28204 543.89632,195.8716 L 538.81699,217.23194 C 538.2728,219.54483 538.09138,220.54256 533.55628,221.04142 C 533.28418,221.08678 533.01207,221.49494 533.01207,221.90309 C 533.01207,222.2659 533.14812,222.31126 533.28416,222.31126 C 536.05058,222.22056 543.03466,222.03914 545.93711,222.03914 C 548.83958,222.03914 555.82364,222.22056 558.59005,222.31126 C 559.13427,219.5902 559.8599,216.86912 560.63085,214.46553 C 560.67618,214.23877 560.22268,213.87596 559.72383,213.87596 C 559.54244,213.87596 559.361,213.92131 559.361,214.05737 C 558.1819,217.9122 554.64451,220.58792 550.83502,220.58792 L 545.3022,220.58792 C 544.07773,220.58792 543.17069,220.13439 543.17069,218.77387 C 543.17069,218.32036 543.30675,217.82149 543.4428,217.23194 L 545.93711,206.75585 L 551.46994,206.75585 C 554.05494,206.75585 555.00732,207.48147 554.46311,212.01657 C 554.41775,212.19797 554.55382,212.37938 555.09802,212.37938 C 555.37013,212.37938 555.64223,212.28868 555.73293,212.01657 C 556.27715,209.74902 556.45856,208.25243 556.95742,206.12094 C 557.45627,203.98944 557.77375,203.21845 558.31793,200.95092 C 558.36329,200.72416 558.09119,200.58811 557.68302,200.58811 C 557.32023,200.58811 557.09347,200.72416 557.00276,200.95092 C 555.59689,204.98714 554.2817,205.30462 551.83275,205.30462 L 546.25457,205.30462 L 548.65817,195.19134 C 549.20239,192.96914 550.78968,192.47027 551.9688,192.47027 L 555.05266,192.47027 C 558.99822,192.47027 560.63085,194.01222 560.99364,198.13915 C 561.039,198.36591 561.26577,198.50197 561.62856,198.50197 C 561.99138,198.50197 562.26348,198.36591 562.26348,198.13915 C 562.26348,197.27749 562.21811,195.64484 562.21811,194.78318 C 562.21811,193.46799 562.26348,192.24351 562.39955,190.74694 M 582.9457,205.07786 C 582.9457,203.17311 581.53979,202.0847 580.04322,202.0847 C 576.46049,202.0847 572.51494,207.52681 570.29275,211.20025 L 571.65329,207.34542 C 572.10678,206.03023 572.33355,204.9418 572.33355,204.12549 C 572.33355,202.81031 571.47186,202.0847 570.02066,202.0847 C 567.25422,202.0847 563.218,207.48147 563.218,207.84428 C 563.218,208.07103 563.4901,208.61525 563.94362,208.61525 C 564.44248,208.61525 566.48326,204.98716 567.66237,204.98716 C 567.93451,204.98716 568.07056,205.16856 568.07056,205.53138 C 568.07056,205.98487 567.88914,206.66514 567.48097,207.75357 L 562.76448,221.7217 C 562.58308,222.22054 563.71685,222.49266 564.48781,222.49266 C 565.21342,222.49266 566.57396,222.22054 566.75536,221.7217 L 568.25196,217.41334 C 570.51948,213.2864 575.28135,205.25927 577.5489,205.25927 C 578.31989,205.25927 578.59199,205.75813 578.59199,206.5291 C 578.59199,207.20935 578.36522,208.02568 577.95707,208.97805 L 574.28364,217.7308 C 573.60339,219.31807 573.28593,220.49721 573.28593,221.35889 C 573.28593,222.49265 574.23827,223.03687 575.41741,223.03687 C 578.31985,223.03687 582.71893,217.82149 582.71893,217.32264 C 582.71893,217.05054 582.49217,216.55167 582.03869,216.55167 C 581.58515,216.55167 579.36293,220.1344 578.04777,220.1344 C 577.77567,220.1344 577.6396,219.95301 577.6396,219.5902 C 577.6396,219.18203 577.95707,218.4564 578.41059,217.36799 L 581.99332,208.842 C 582.62823,207.34542 582.9457,206.12092 582.9457,205.07786 M 600.33638,204.9418 C 600.33638,203.35452 598.47698,202.0847 596.20943,202.0847 C 591.71969,202.0847 584.8717,210.06648 584.8717,217.27729 C 584.8717,220.36115 586.95782,223.03687 589.63353,223.03687 C 592.67208,223.03687 595.84664,219.04598 596.52689,217.5494 C 596.70833,217.1866 596.07341,216.50632 595.84664,216.77843 C 594.71286,218.22965 592.76277,219.90765 591.22083,219.90765 C 589.90567,219.90765 589.04398,219.18202 589.04398,217.1866 C 589.04398,209.25016 593.12556,204.03478 594.5768,204.03478 C 596.48156,204.03478 596.48156,206.5291 598.79445,206.5291 C 599.61076,206.5291 600.33638,205.93952 600.33638,204.9418 M 618.59513,203.39987 C 618.59513,202.62891 617.91488,202.0847 616.9625,202.0847 C 616.50901,202.0847 615.91942,202.31145 615.73802,203.94408 C 615.28453,208.07102 614.37748,213.42246 610.79475,219.5902 C 610.88545,218.04827 610.88545,216.64236 610.88545,215.3272 C 610.88545,205.07786 608.16441,202.0847 605.76079,202.0847 C 603.40254,202.0847 600.63613,207.70822 600.63613,209.20481 C 600.63613,209.43156 600.95359,209.97578 601.40708,209.97578 C 601.8606,209.97578 603.03975,205.75813 604.62701,205.75813 C 605.85149,205.75813 607.16667,210.51999 607.16667,219.40878 C 607.16667,228.25223 602.35946,231.88032 601.13498,231.88032 C 599.45703,231.88032 599.27559,230.7012 598.00575,230.7012 C 596.87201,230.7012 596.10102,231.38147 596.10102,232.51524 C 596.10102,233.69435 597.50693,234.73744 599.09419,234.73744 C 606.35035,234.73744 618.59513,209.3862 618.59513,203.39987 M 636.03261,204.9418 C 636.03261,203.35452 634.17321,202.0847 631.90566,202.0847 C 627.41592,202.0847 620.56789,210.06648 620.56789,217.27729 C 620.56789,220.36115 622.65405,223.03687 625.32976,223.03687 C 628.3683,223.03687 631.54287,219.04598 632.22312,217.5494 C 632.40451,217.1866 631.76959,216.50632 631.54287,216.77843 C 630.40909,218.22965 628.459,219.90765 626.91706,219.90765 C 625.60189,219.90765 624.74021,219.18202 624.74021,217.1866 C 624.74021,209.25016 628.82179,204.03478 630.27303,204.03478 C 632.17776,204.03478 632.17779,206.5291 634.49068,206.5291 C 635.30699,206.5291 636.03261,205.93952 636.03261,204.9418 M 651.29818,189.65851 C 651.29818,189.38641 651.16216,189.15965 650.8447,189.15965 C 650.52724,189.15965 650.30047,189.34105 650.07371,189.47711 C 648.75854,190.29341 645.53861,191.5179 643.49781,191.88072 C 643.27105,191.88072 643.13502,192.10747 643.13502,192.42492 C 643.13502,192.74238 643.27105,192.96914 643.49781,193.01449 C 644.76765,193.15054 645.40258,193.46799 645.40258,194.10291 C 645.40258,194.55641 645.26651,195.19134 644.90368,196.14371 L 636.64981,217.7308 C 636.24166,218.86456 636.0149,219.81696 636.0149,220.63327 C 636.0149,222.12983 636.74051,223.03687 638.41851,223.03687 C 641.23025,223.03687 645.72003,217.09587 645.67466,216.68773 C 645.6293,216.41562 645.35721,215.91676 644.90368,215.91676 C 644.40483,215.91676 642.3187,219.72625 640.77677,219.72625 C 640.41394,219.72625 640.27788,219.45413 640.27788,219.04599 C 640.27788,218.50177 640.86747,217.14123 641.13956,216.41562 L 651.02609,190.83763 C 651.20749,190.33878 651.29818,189.97597 651.29818,189.65851 M 665.38323,209.06875 C 665.38323,204.71506 662.61682,202.0847 659.94111,202.0847 C 654.54435,202.0847 648.55801,209.2955 648.55801,216.09817 C 648.55801,220.4065 651.27905,223.03687 653.95476,223.03687 C 659.39688,223.03687 665.38323,215.82604 665.38323,209.06875 M 661.66443,206.12094 C 661.66443,213.51315 656.94793,221.58565 654.00013,221.58565 C 652.54889,221.58565 652.23143,220.81466 652.23143,219.00063 C 652.23143,211.65377 656.9933,203.58128 659.94111,203.58128 C 661.34698,203.58128 661.66443,204.30689 661.66443,206.12094 M 686.24327,208.52454 C 686.24327,204.30689 683.9304,202.0847 680.61976,202.0847 C 679.66738,202.0847 678.76037,202.22075 677.67196,202.58356 L 679.16852,198.22986 C 679.30459,197.73099 678.17081,197.45889 677.39982,197.45889 C 676.67425,197.45889 675.3137,197.73099 675.1323,198.22986 L 673.04615,204.44295 C 671.54955,205.1232 670.0983,205.98488 668.87383,206.8012 C 668.73781,206.8919 668.73781,207.20936 668.9192,207.48147 C 669.10059,207.75357 669.37273,207.84428 669.50875,207.75357 C 670.32507,207.30007 671.32282,206.75583 672.41123,206.25699 L 664.52015,229.52207 C 663.88523,231.29075 662.38867,232.28849 660.34784,232.42454 C 660.07574,232.42454 659.80366,232.87805 659.80366,233.24086 C 659.80366,233.60366 659.93968,233.69436 660.03038,233.69436 C 663.34101,233.69436 667.28656,233.83042 670.68789,234.10253 C 671.00536,234.10253 671.23208,233.649 671.23208,233.19551 C 671.23208,233.0141 671.18675,232.83269 671.00536,232.83269 C 669.64482,232.60593 668.23895,232.37918 668.23895,231.10935 C 668.23895,230.7012 668.28427,230.20232 668.51104,229.52207 L 671.36815,221.08678 C 672.09377,222.35659 673.27291,223.03687 674.63341,223.03687 C 680.03021,223.03687 686.24327,215.28184 686.24327,208.52454 M 681.84423,207.88963 C 681.84423,215.28184 678.08011,221.58565 674.67878,221.58565 C 673.68107,221.58565 672.50193,221.13211 672.50193,219.22738 C 672.50193,218.36571 672.68332,217.27729 673.18218,215.82606 L 676.99167,204.62436 C 677.67196,204.44295 678.26151,204.3976 679.07782,204.3976 C 680.75582,204.3976 681.84423,205.39532 681.84423,207.88963 M 702.79573,205.48603 C 702.79573,203.67198 701.79798,202.0847 699.34903,202.0847 C 694.7686,202.0847 688.32872,210.20252 688.32872,217.27729 C 688.32872,219.95299 690.09742,223.03687 693.40805,223.03687 C 696.76402,223.03687 699.80256,218.95527 700.6642,217.14124 C 700.84564,216.77843 700.16535,216.09817 699.93858,216.37027 C 699.12227,217.64009 697.53501,219.72625 694.81393,219.72625 C 693.04523,219.72625 692.41034,218.59246 692.41034,216.00746 C 692.41034,215.3272 692.45567,214.46551 692.54637,213.55851 C 698.26058,213.55851 702.79573,209.3862 702.79573,205.48603 M 699.57579,206.25699 C 699.57579,207.66285 697.94313,212.10727 692.8185,212.10727 C 693.54412,208.07103 695.53954,204.35225 697.89779,204.35225 C 699.07694,204.35225 699.57579,205.07786 699.57579,206.25699 M 729.3948,189.65851 C 729.3948,189.38641 729.25873,189.15965 728.94127,189.15965 C 728.62385,189.15965 728.39709,189.34105 728.17032,189.47711 C 726.85516,190.29341 723.68058,191.5179 721.63979,191.88072 C 721.41303,191.88072 721.27697,192.10747 721.27697,192.42492 C 721.27697,192.74238 721.45836,192.96914 721.68512,193.01449 C 722.95497,193.15054 723.63521,193.46799 723.63521,194.10291 C 723.63521,194.55641 723.49916,195.19134 723.13636,196.14371 L 720.59672,203.35452 C 719.96179,202.49285 718.41986,202.0847 717.60354,202.0847 C 712.66028,202.0847 703.90751,211.38166 703.90751,218.50177 C 703.90751,221.35887 705.49482,223.03687 707.44491,223.03687 C 710.12062,223.03687 713.74868,219.86229 716.01624,215.96211 C 715.38132,217.41333 714.74643,218.81923 714.74643,220.49721 C 714.74643,222.03914 715.47205,223.03687 717.19538,223.03687 C 720.18855,223.03687 724.08875,217.32263 724.08875,216.91449 C 724.08875,216.64237 723.72591,216.14352 723.27243,216.14352 C 722.95497,216.14352 720.68741,219.95301 719.50827,219.95301 C 719.1908,219.95301 719.05477,219.63553 719.05477,219.22738 C 719.05477,218.68318 719.59896,217.14123 719.87109,216.41562 L 729.16803,190.83763 C 729.3041,190.33878 729.3948,189.97597 729.3948,189.65851 M 719.78039,205.75813 C 719.78039,208.11637 713.24983,219.99835 709.44034,219.99835 C 708.57869,219.99835 707.9891,219.27272 707.9891,217.86685 C 707.9891,211.74447 713.70335,203.53593 717.60354,203.53593 C 719.05477,203.53593 719.78039,204.44295 719.78039,205.75813 M 739.84894,193.5587 C 739.84894,192.15282 738.71516,190.97369 737.30929,190.97369 C 735.85805,190.97369 734.72427,192.15282 734.72427,193.5587 C 734.72427,194.96457 735.85805,196.09835 737.30929,196.09835 C 738.71516,196.09835 739.84894,194.96457 739.84894,193.5587 M 737.17322,203.98944 C 737.17322,202.71961 736.40224,202.0847 735.04173,202.0847 C 732.22995,202.0847 727.37739,207.79892 727.37739,208.20708 C 727.37739,208.47919 727.60415,208.97805 728.05768,208.97805 C 728.42047,208.97805 731.23224,204.98716 732.41135,204.98716 C 732.68348,204.98716 732.81951,205.16856 732.81951,205.44067 C 732.81951,205.89416 732.59279,206.66514 732.04856,207.75357 L 727.10529,217.7308 C 726.51574,219.00062 726.10758,220.1344 726.10758,221.04142 C 726.10758,222.22054 726.74247,223.03687 728.2844,223.03687 C 731.05081,223.03687 735.94875,217.27729 735.94875,216.91449 C 735.94875,216.64237 735.67665,216.14352 735.22313,216.14352 C 734.76961,216.14352 732.09389,220.1344 730.86942,220.1344 C 730.59732,220.1344 730.50662,219.95301 730.50662,219.5902 C 730.50662,218.95529 730.73339,218.4564 731.27757,217.36799 L 736.22084,207.34542 C 736.90113,205.93953 737.17322,205.16855 737.17322,203.98944 M 759.31159,202.49285 C 759.53836,202.0847 758.85811,201.72189 757.67896,201.72189 C 756.59055,201.72189 755.54747,201.994 755.32071,202.49285 L 754.77648,203.80803 C 754.2323,203.44523 753.59738,203.30917 752.82639,203.30917 C 747.97386,203.30917 738.13266,213.15035 738.13266,219.72625 C 738.13266,221.81239 739.08504,223.03687 740.62697,223.03687 C 743.39338,223.03687 747.6564,219.40878 749.83322,215.37255 C 748.79018,217.32263 747.92849,219.36344 747.92849,220.90537 C 747.92849,222.22054 748.65411,223.03687 750.19604,223.03687 C 752.96245,223.03687 757.49756,217.27729 757.49756,216.91449 C 757.49756,216.64237 757.22547,216.14352 756.77194,216.14352 C 756.40912,216.14352 753.68808,220.1344 752.645,220.1344 C 752.32753,220.1344 752.19151,219.95301 752.19151,219.5902 C 752.19151,219.04599 752.50893,218.1843 752.87175,217.36799 L 759.31159,202.49285 M 753.68808,206.07558 C 753.68808,209.25015 746.25049,219.5902 743.71085,219.5902 C 742.53174,219.5902 742.03285,219.00062 742.03285,217.32264 C 742.03285,213.24104 748.38201,204.71506 752.69037,204.71506 C 753.41598,204.71506 753.68808,205.21392 753.68808,206.07558"
       id="text2389" />
    <g
       id="g3693"
       transform="matrix(1.5902089,0,0,1.5902089,-82.673898,-159.48715)">
      <g
         style="fill:#000000;fill-opacity:1"
         transform="matrix(0.7757563,0,0,-0.7757563,302.09306,184.91621)"
         id="g3695">
        <path
           id="path3697"
           style="fill:#000000;fill-opacity:1;fill-rule:nonzero;stroke:none"
           d="M 0,0 C -2.107,11.223 -12.905,18.614 -24.114,16.51 C -24.196,16.494 -24.276,16.474 -24.357,16.458 C -14.323,17.724 -4.913,10.962 -3.021,0.877 C -2.964,0.577 -2.917,0.277 -2.875,-0.023 C -5.147,-1.281 -9.078,-2.645 -13.891,-3.82 C -13.889,-3.832 -13.887,-3.843 -13.886,-3.855 C -13.823,-4.22 -13.764,-4.581 -13.706,-4.941 C -13.695,-4.998 -13.688,-5.054 -13.679,-5.111 C -13.628,-5.432 -13.579,-5.751 -13.53,-6.067 L -13.503,-6.258 C -13.455,-6.577 -13.41,-6.892 -13.366,-7.206 C -13.358,-7.256 -13.352,-7.305 -13.345,-7.355 C -13.296,-7.711 -13.249,-8.065 -13.204,-8.415 L -13.204,-8.417 C -8.69,-7.144 -4.987,-5.512 -2.722,-3.845 C -3.19,-11.724 -8.485,-18.658 -16.158,-21.07 C -17.427,-18.704 -18.818,-14.557 -20.011,-9.497 C -20.049,-9.338 -20.086,-9.18 -20.123,-9.02 C -20.155,-8.88 -20.187,-8.738 -20.219,-8.597 C -20.276,-8.34 -20.335,-8.082 -20.392,-7.821 C -20.405,-7.76 -20.419,-7.699 -20.432,-7.637 C -20.436,-7.622 -20.438,-7.607 -20.441,-7.592 C -20.444,-7.577 -20.448,-7.563 -20.451,-7.549 C -20.514,-7.258 -20.576,-6.963 -20.637,-6.667 C -20.662,-6.549 -20.686,-6.429 -20.71,-6.31 C -20.769,-6.024 -20.826,-5.735 -20.883,-5.444 C -20.894,-5.388 -20.905,-5.332 -20.917,-5.275 C -22.221,-5.501 -23.499,-5.698 -24.733,-5.867 C -24.76,-5.87 -24.786,-5.874 -24.811,-5.877 C -25.191,-5.929 -25.568,-5.977 -25.94,-6.023 C -32.608,-6.842 -37.916,-6.775 -39.814,-5.827 C -40.108,-6.359 -40.225,-6.88 -40.134,-7.38 C -39.64,-10.098 -33.258,-11.311 -24.937,-10.57 C -23.544,-15.586 -21.709,-19.629 -19.866,-21.848 C -29.396,-22.897 -38.3,-16.724 -40.643,-7.383 C -40.629,-7.462 -40.619,-7.542 -40.604,-7.622 C -38.496,-18.846 -27.701,-26.24 -16.485,-24.133 C -5.275,-22.03 2.104,-11.225 0,0 M -22.099,2.112 C -22.897,8.547 -22.893,13.693 -22.077,15.713 C -22.686,16.105 -23.282,16.269 -23.85,16.166 C -26.554,15.674 -27.767,9.338 -27.043,1.057 C -25.477,1.433 -23.817,1.787 -22.099,2.112 M -14.142,0.512 C -12.261,0.855 -11.018,2.657 -11.358,4.536 C -11.702,6.419 -13.499,7.665 -15.382,7.324 C -17.257,6.984 -18.504,5.182 -18.163,3.302 C -17.818,1.42 -16.02,0.172 -14.142,0.512" />
      </g>
      <path
         id="path3699"
         d="M 510.37633,155.5625 C 509.90324,155.5625 509.56825,155.79444 509.43306,156.1324 L 493.63325,194.96377 C 491.87587,198.95161 490.52364,201.31836 485.7923,201.72389 C 485.52192,201.79147 485.02589,202.14608 485.02589,202.68681 C 484.9583,203.22752 485.15957,203.63009 485.49752,203.63009 C 488.67426,203.63009 490.08936,203.21741 493.06335,203.21741 C 496.7808,203.21741 497.74183,203.63009 501.72967,203.63009 C 502.00005,203.63009 502.27991,203.22753 502.27991,202.68681 C 502.27989,202.14607 502.15723,201.72389 501.88688,201.72389 C 497.62867,201.52111 496.38446,200.32599 496.38446,198.50104 C 496.38446,197.55478 496.72567,196.40758 497.13122,195.25855 L 500.96326,184.78429 L 514.91583,184.78429 L 518.80683,196.06426 C 519.1448,197.14571 519.43568,198.10266 519.43568,198.91373 C 519.43565,200.6035 518.14978,201.52112 513.75639,201.72389 C 513.486,201.72388 513.34371,202.14608 513.34371,202.68681 C 513.34374,203.22752 513.64324,203.63009 513.9136,203.63009 C 518.37459,203.63009 520.31514,203.21741 524.50576,203.21741 C 528.22326,203.21741 529.63471,203.63009 534.0957,203.63009 C 534.36607,203.63009 534.66559,203.22753 534.66559,202.68681 C 534.66559,202.14607 534.24816,201.79148 533.97779,201.72389 C 528.57054,201.11557 526.58707,198.41089 525.37043,194.96377 L 511.3196,156.1324 C 511.25201,155.86203 510.91706,155.5625 510.37633,155.5625 z M 508.21467,165.30965 L 514.16907,182.60298 L 501.78862,182.60298 L 508.21467,165.30965 z"
         style="font-size:120px;font-style:normal;font-variant:normal;font-weight:bold;font-stretch:normal;fill:#000000;fill-opacity:1;stroke:none;stroke-width:1px;stroke-linecap:butt;stroke-linejoin:miter;stroke-opacity:1;font-family:Hoefler Text;-inkscape-font-specification:Hoefler Text Bold" />
      <path
         id="path3701"
         d="M 273.85871,204.71875 C 274.19666,204.71875 274.38996,204.2544 274.38996,203.78125 C 274.38996,203.24054 273.97792,202.84375 273.63996,202.84375 C 269.38174,202.37062 267.48526,200.73134 265.38996,196 L 248.42121,157.15625 C 248.28601,156.81831 247.95685,156.59375 247.48371,156.59375 C 246.94299,156.59375 246.74897,156.8183 246.54621,157.15625 L 235.38996,177.34375 L 225.73371,157.15625 C 225.53093,156.81831 225.2381,156.59375 224.76496,156.59375 C 224.22423,156.59375 223.96264,156.75072 223.82746,157.15625 L 206.60871,196 C 204.85135,199.98785 203.35674,202.43821 199.23371,202.84375 C 198.76059,202.84375 198.42121,203.4331 198.42121,203.90625 C 198.4212,204.44696 198.68719,204.71875 198.88996,204.71875 C 202.06673,204.71875 202.94213,204.3125 205.98371,204.3125 C 208.89009,204.31249 210.17686,204.71875 213.42121,204.71875 C 213.75917,204.71875 214.01496,204.2544 214.01496,203.78125 C 214.01496,203.24054 213.87908,202.84375 213.60871,202.84375 C 210.7023,202.70857 209.10871,201.47541 209.10871,199.3125 C 209.10871,198.43384 209.29181,197.43029 209.76496,196.28125 L 222.73371,166.0625 L 231.54621,183.96875 L 225.04621,196 C 222.61295,200.2582 221.25719,202.37062 216.79621,202.84375 C 216.32307,202.84375 216.04621,203.4331 216.04621,203.90625 C 216.04621,204.44696 216.24969,204.71875 216.45246,204.71875 C 219.62923,204.71875 221.52938,204.3125 223.82746,204.3125 C 226.80145,204.31249 228.36945,204.71875 231.54621,204.71875 C 231.81657,204.71875 232.13996,204.2544 232.13996,203.78125 C 232.13997,203.24054 232.00407,202.84375 231.73371,202.84375 C 228.69213,202.70857 227.20246,201.55896 227.20246,199.53125 C 227.20246,198.65256 227.5578,197.56547 228.23371,196.28125 L 233.07746,187.15625 L 238.01496,197.09375 C 238.62328,198.37797 239.04621,199.40257 239.04621,200.28125 C 239.04621,201.83583 237.55653,202.64098 234.51496,202.84375 C 234.24459,202.84375 234.17121,203.24053 234.17121,203.78125 C 234.17121,204.25441 234.4321,204.71875 234.70246,204.71875 C 239.16345,204.71875 239.44935,204.3125 243.63996,204.3125 C 247.83057,204.31249 247.21022,204.71875 251.67121,204.71875 C 251.94158,204.71875 252.13996,204.2544 252.13996,203.78125 C 252.13996,203.24054 251.75407,202.84375 251.48371,202.84375 C 247.15791,202.37062 246.45911,200.52856 244.29621,196 L 236.88996,180.46875 L 244.85871,165.46875 L 258.82746,197.09375 C 259.16541,197.83725 259.38996,198.51669 259.38996,199.125 C 259.38996,201.62585 256.88062,202.64098 254.51496,202.84375 C 254.24458,202.84375 254.17121,203.24053 254.17121,203.78125 C 254.17121,204.25441 254.46336,204.71875 254.73371,204.71875 C 259.19469,204.71875 260.60559,204.3125 264.79621,204.3125 C 268.91924,204.31249 269.39771,204.71875 273.85871,204.71875 z"
         style="font-size:120px;font-style:normal;font-variant:normal;font-weight:bold;font-stretch:normal;fill:#000000;fill-opacity:1;stroke:none;stroke-width:1px;stroke-linecap:butt;stroke-linejoin:miter;stroke-opacity:1;font-family:Hoefler Text;-inkscape-font-specification:Hoefler Text Bold" />
      <g
         style="fill:#000000;fill-opacity:1"
         transform="matrix(2.287996,0,0,-2.287996,124.92672,213.78041)"
         id="g3703">
        <path
           id="path3705"
           style="fill:#000000;fill-opacity:1;fill-rule:nonzero;stroke:none"
           d="M 112.0765,0 L 109.04049,0 L 109.04049,16.037 C 109.04049,16.945 109.48149,17.463 109.81849,17.723 C 110.3385,18.113 111.0125,18.165 111.5325,18.165 L 116.3325,18.165 C 117.21551,18.165 119.05651,18.034 120.37951,16.659 C 121.78251,15.206 121.83351,13.078 121.83351,11.573 C 121.83351,9.757 121.72951,7.785 120.74451,6.384 C 119.44651,4.516 117.31951,4.412 115.9175,4.412 L 112.0765,4.412 L 112.0765,0 z M 115.5285,6.747 C 117.03451,6.747 117.78451,7.474 118.12251,8.019 C 118.40751,8.434 118.69351,9.265 118.69351,11.314 C 118.69351,13.183 118.48651,13.908 118.32951,14.273 C 117.94151,15.155 117.03451,15.828 115.6825,15.828 L 112.6995,15.828 C 112.5695,15.828 112.3885,15.725 112.2855,15.646 C 112.1285,15.491 112.0765,15.336 112.0765,15.181 L 112.0765,6.747 L 115.5285,6.747 z" />
      </g>
      <g
         style="fill:#000000;fill-opacity:1"
         transform="matrix(2.287996,0,0,-2.287996,418.63759,203.68555)"
         id="g3707">
        <path
           id="path3709"
           style="fill:#000000;fill-opacity:1;fill-rule:nonzero;stroke:none"
           d="M 0,0 C -1.4,0 -3.062,0.129 -4.202,1.738 C -5.11,3.036 -5.189,4.93 -5.189,6.747 C -5.189,9.315 -5.06,11.209 -3.554,12.507 C -2.05,13.804 0.286,13.804 1.584,13.804 C 3.193,13.804 4.853,13.725 6.124,12.922 C 7.732,11.911 8.07,10.197 8.07,8.458 C 8.07,7.758 7.992,6.954 7.422,6.384 C 7.009,5.968 6.487,5.865 5.941,5.865 L -2.05,5.865 C -2.05,5.268 -1.971,4.385 -1.869,3.97 C -1.479,2.492 -0.207,2.335 0.909,2.335 L 7.629,2.335 L 7.629,0 L 0,0 z M 4.256,8.2 C 4.853,8.2 4.932,8.641 4.932,9.004 C 4.932,9.861 4.49,10.509 4.049,10.847 C 3.296,11.416 2.311,11.469 1.453,11.469 C 0.649,11.469 -0.598,11.494 -1.426,10.561 C -2.05,9.861 -2.024,9.107 -2.05,8.2 L 4.256,8.2 z" />
      </g>
      <path
         id="path3715"
         style="fill:#000000;fill-opacity:1;fill-rule:nonzero;stroke:none"
         d="M 307.56069,172.21642 L 314.50703,172.21642 L 314.50703,203.68553 L 307.56069,203.68553 L 307.56069,172.21642 z M 329.58722,203.68553 L 318.72381,192.16775 C 317.8315,191.21823 316.58911,189.61437 316.58911,187.41787 C 316.58911,185.04294 317.89098,183.67701 318.78331,182.6703 L 328.28077,172.21873 L 336.35512,172.21873 L 324.54219,184.92395 C 324.0068,185.52113 323.52862,186.17322 323.52862,187.18221 C 323.52862,188.19123 324.24247,189.25972 325.0158,190.09026 L 337.9018,203.68553 L 329.58722,203.68553 z" />
      <g
         style="fill:#000000;fill-opacity:1"
         transform="matrix(2.287996,0,0,-2.287996,365.68102,175.18834)"
         id="g3717">
        <path
           id="path3719"
           style="fill:#000000;fill-opacity:1;fill-rule:nonzero;stroke:none"
           d="M 0,0 C 1.583,-1.478 1.764,-4.074 1.764,-5.527 C 1.764,-8.433 1.012,-10.172 0,-11.132 C -1.479,-12.508 -3.972,-12.612 -5.555,-12.612 C -7.188,-12.612 -9.602,-12.508 -11.106,-11.132 C -12.74,-9.627 -12.87,-7.033 -12.87,-5.63 C -12.87,-4.074 -12.689,-1.478 -11.106,0 C -9.602,1.4 -7.188,1.453 -5.555,1.453 C -3.919,1.453 -1.503,1.4 0,0 M -8.85,-9.134 C -7.967,-10.146 -6.644,-10.276 -5.555,-10.276 C -4.412,-10.276 -3.192,-10.146 -2.284,-9.134 C -1.375,-8.122 -1.375,-6.797 -1.375,-5.606 C -1.375,-4.593 -1.297,-3.037 -2.257,-1.972 C -3.142,-0.986 -4.463,-0.882 -5.555,-0.882 C -6.539,-0.882 -8.019,-0.986 -8.875,-1.972 C -9.732,-2.959 -9.732,-4.724 -9.732,-5.606 C -9.732,-6.747 -9.705,-8.148 -8.85,-9.134" />
      </g>
      <path
         d="M 463.1655,162.12434 L 470.11173,162.12434 L 470.11173,198.81654 C 470.11173,200.89402 469.10278,202.07919 468.33175,202.67408 C 467.14198,203.56637 465.59987,203.68535 464.41019,203.68535 L 453.4278,203.68535 C 451.40759,203.68535 447.19542,203.38562 444.16843,200.23965 C 440.95838,196.91524 440.84169,192.04643 440.84169,188.60304 C 440.84169,184.44808 441.07964,179.9362 443.33332,176.73074 C 446.30311,172.4568 451.16965,172.21887 454.37734,172.21887 L 463.1655,172.21887 L 463.1655,162.12434 z M 455.26736,177.56129 C 451.82174,177.56129 450.10572,179.22463 449.33239,180.47158 C 448.6803,181.4211 448.02592,183.3224 448.02592,188.01044 C 448.02592,192.28667 448.49957,193.94545 448.85874,194.78057 C 449.74655,196.79855 451.82174,198.33835 454.91502,198.33835 L 461.74002,198.33835 C 462.03746,198.33835 462.45161,198.1027 462.68724,197.92194 C 463.04649,197.56731 463.1655,197.21268 463.1655,196.85805 L 463.1655,177.56129 L 455.26736,177.56129 z"
         style="fill:#000000;fill-opacity:1;fill-rule:nonzero;stroke:none"
         id="path3721" />
      <path
         sodipodi:nodetypes="ccccc"
         d="M 474.35516,172.21642 L 481.30155,172.21642 L 481.30155,203.68553 L 474.35516,203.68553 L 474.35516,172.21642 z"
         style="fill:#000000;fill-opacity:1;fill-rule:nonzero;stroke:none"
         id="path3723" />
    </g>
  </g>
</svg>
