<?xml version="1.0" encoding="UTF-8" standalone="no"?>
<!-- Created with Inkscape (http://www.inkscape.org/) -->
<svg
   xmlns:dc="http://purl.org/dc/elements/1.1/"
   xmlns:cc="http://creativecommons.org/ns#"
   xmlns:rdf="http://www.w3.org/1999/02/22-rdf-syntax-ns#"
   xmlns:svg="http://www.w3.org/2000/svg"
   xmlns="http://www.w3.org/2000/svg"
   xmlns:sodipodi="http://sodipodi.sourceforge.net/DTD/sodipodi-0.dtd"
   xmlns:inkscape="http://www.inkscape.org/namespaces/inkscape"
   width="672.84564"
   height="237.24001"
   id="svg2"
   sodipodi:version="0.32"
   inkscape:version="0.46"
   version="1.0"
   sodipodi:docname="wokopedia.svg"
   inkscape:output_extension="org.inkscape.output.svg.inkscape">
  <defs
     id="defs4">
    <inkscape:perspective
       sodipodi:type="inkscape:persp3d"
       inkscape:vp_x="0 : 526.18109 : 1"
       inkscape:vp_y="0 : 1000 : 0"
       inkscape:vp_z="744.09448 : 526.18109 : 1"
       inkscape:persp3d-origin="372.04724 : 350.78739 : 1"
       id="perspective10" />
  </defs>
  <sodipodi:namedview
     id="base"
     pagecolor="#ffffff"
     bordercolor="#666666"
     borderopacity="1.0"
     gridtolerance="10000"
     guidetolerance="10"
     objecttolerance="10"
     inkscape:pageopacity="0.0"
     inkscape:pageshadow="2"
     inkscape:zoom="0.7"
     inkscape:cx="295.19261"
     inkscape:cy="156.48271"
     inkscape:document-units="px"
     inkscape:current-layer="layer1"
     showgrid="false"
     inkscape:window-width="640"
     inkscape:window-height="653"
     inkscape:window-x="5"
     inkscape:window-y="49" />
  <metadata
     id="metadata7">
    <rdf:RDF>
      <cc:Work
         rdf:about="">
        <dc:format>image/svg+xml</dc:format>
        <dc:type
           rdf:resource="http://purl.org/dc/dcmitype/StillImage" />
      </cc:Work>
    </rdf:RDF>
  </metadata>
  <g
     inkscape:label="Layer 1"
     inkscape:groupmode="layer"
     id="layer1"
     transform="translate(-91.428574,-239.19074)">
    <path
       style="font-size:120px;font-style:normal;font-variant:normal;font-weight:bold;font-stretch:normal;fill:#000000;fill-opacity:1;stroke:none;stroke-width:1px;stroke-linecap:butt;stroke-linejoin:miter;stroke-opacity:1;font-family:Hoefler Text;-inkscape-font-specification:Hoefler Text Bold"
       d="M 226.30857,242.43074 C 226.30857,241.47074 225.82857,240.99074 225.46857,240.99074 C 219.82858,240.99074 218.26857,241.71074 212.86857,241.71074 C 207.70858,241.71074 205.42857,240.99074 199.66857,240.99074 C 199.06857,240.99074 198.58857,241.83074 198.58857,242.67074 C 198.58857,243.63074 198.82857,244.35074 199.30857,244.35074 C 204.46857,244.59074 207.34857,246.75074 207.34857,250.59074 C 207.34857,252.15074 206.98857,253.95074 206.14857,255.99074 L 183.10857,309.63074 L 167.50857,277.83074 L 179.02857,256.47074 C 183.34857,248.91075 185.74858,245.19074 193.66857,244.35074 C 194.50857,244.35074 194.98857,243.27074 194.98857,242.43074 C 194.98857,241.47074 194.62857,240.99074 194.26857,240.99074 C 188.62858,240.99074 185.26857,241.71074 181.18857,241.71074 C 175.90858,241.71074 173.14857,240.99074 167.50857,240.99074 C 167.02857,240.99074 166.42857,241.83074 166.42857,242.67074 C 166.42857,243.63074 166.66857,244.35074 167.14857,244.35074 C 172.54857,244.59074 175.18857,246.63074 175.18857,250.23074 C 175.18857,251.79074 174.58857,253.71074 173.38857,255.99074 L 164.74857,272.19074 L 155.98857,254.55074 C 154.90857,252.27074 154.18857,250.47074 154.18857,248.91074 C 154.18857,246.15074 156.82858,244.71074 162.22857,244.35074 C 162.70857,244.35074 162.82857,243.63074 162.82857,242.67074 C 162.82857,241.83074 162.34857,240.99074 161.86857,240.99074 C 153.94858,240.99074 153.46857,241.71074 146.02857,241.71074 C 138.58858,241.71074 139.66857,240.99074 131.74857,240.99074 C 131.26857,240.99074 130.90857,241.83074 130.90857,242.67074 C 130.90857,243.63074 131.62857,244.35074 132.10857,244.35074 C 139.78857,245.19074 140.98858,248.43075 144.82857,256.47074 L 158.02857,284.07074 L 143.86857,310.71074 L 119.02857,254.55074 C 118.42857,253.23074 118.06857,252.03074 118.06857,250.95074 C 118.06857,246.51075 122.50858,244.71074 126.70857,244.35074 C 127.18857,244.35074 127.30857,243.63074 127.30857,242.67074 C 127.30857,241.83074 126.82857,240.99074 126.34857,240.99074 C 118.42858,240.99074 115.90857,241.71074 108.46857,241.71074 C 101.14858,241.71074 100.30857,240.99074 92.388574,240.99074 C 91.788574,240.99074 91.428574,241.83074 91.428574,242.67074 C 91.428574,243.63074 92.148574,244.35074 92.748574,244.35074 C 100.30857,245.19074 103.66858,248.07075 107.38857,256.47074 L 137.50857,325.47074 C 137.74857,326.07074 138.34857,326.43074 139.18857,326.43074 C 140.14857,326.43074 140.50857,326.07074 140.86857,325.47074 L 160.66857,289.59074 L 177.82857,325.47074 C 178.18857,326.07074 178.66857,326.43074 179.50857,326.43074 C 180.46857,326.43074 180.94857,326.19074 181.18857,325.47074 L 211.78857,256.47074 C 214.90857,249.39075 217.54858,245.07074 224.86857,244.35074 C 225.70857,244.35074 226.30857,243.27074 226.30857,242.43074 M 263.7542,322.95074 C 263.7542,322.11074 263.5142,321.51074 263.1542,321.51074 C 254.87421,320.31074 254.3942,318.03074 254.3942,312.51074 L 254.3942,280.95074 C 254.3942,275.55075 254.87421,273.27074 263.1542,272.07074 C 263.5142,271.95074 263.7542,271.35074 263.7542,270.63074 C 263.7542,269.79074 263.5142,269.07074 263.1542,269.07074 C 257.5142,269.07074 255.47419,269.67074 248.9942,269.67074 C 242.39421,269.67074 240.47419,269.07074 234.8342,269.07074 C 234.4742,269.07074 234.1142,269.79074 234.1142,270.63074 C 234.1142,271.35074 234.4742,271.95074 234.8342,272.07074 C 242.99419,273.27074 243.5942,275.55075 243.5942,280.95074 L 243.5942,312.51074 C 243.5942,318.03074 242.99419,320.31074 234.8342,321.51074 C 234.4742,321.51074 234.1142,322.11074 234.1142,322.95074 C 234.1142,323.79074 234.4742,324.51074 234.8342,324.51074 C 240.47419,324.51074 242.39421,323.79074 248.9942,323.79074 C 255.47419,323.79074 257.5142,324.51074 263.1542,324.51074 C 263.5142,324.51074 263.7542,323.79074 263.7542,322.95074 M 341.37732,322.95074 C 341.37732,322.11074 341.01732,321.51074 340.65732,321.51074 C 335.49733,320.79074 332.01732,318.15074 328.65732,314.55074 L 308.73732,293.43074 L 322.53732,279.27074 C 325.53732,276.15074 327.93733,273.15074 335.37732,272.07074 C 335.73732,271.95074 336.09732,271.47074 336.09732,270.63074 C 336.09732,269.79074 335.73732,269.07074 335.37732,269.07074 C 331.89733,269.07074 330.69732,269.67074 326.37732,269.67074 C 321.93733,269.67074 318.45732,269.07074 314.37732,269.07074 C 314.01732,269.07074 313.65732,269.79074 313.65732,270.63074 C 313.65732,271.35074 313.89732,271.95074 314.25732,272.07074 C 318.21732,272.67074 319.05732,273.15074 319.05732,275.19074 C 319.05732,276.27074 317.73732,277.95074 316.41732,279.27074 L 303.33732,293.19074 C 301.05733,295.35074 299.73732,295.95074 296.97732,295.95074 L 296.97732,280.95074 C 296.97732,275.55075 297.57733,273.27074 305.73732,272.07074 C 306.21732,271.95074 306.45732,271.35074 306.45732,270.63074 C 306.45732,269.79074 306.21732,269.07074 305.73732,269.07074 C 300.21733,269.07074 298.17732,269.67074 291.57732,269.67074 C 285.09733,269.67074 283.05732,269.07074 277.53732,269.07074 C 277.05732,269.07074 276.81732,269.79074 276.81732,270.63074 C 276.81732,271.35074 277.05732,271.95074 277.53732,272.07074 C 285.69732,273.27074 286.29732,275.55075 286.29732,280.95074 L 286.29732,312.51074 C 286.29732,318.03074 285.69732,320.31074 277.53732,321.51074 C 277.05732,321.51074 276.81732,322.11074 276.81732,322.95074 C 276.81732,323.79074 277.05732,324.51074 277.53732,324.51074 C 283.05732,324.51074 285.09733,323.79074 291.57732,323.79074 C 298.17732,323.79074 300.21733,324.51074 305.73732,324.51074 C 306.21732,324.51074 306.45732,323.79074 306.45732,322.95074 C 306.45732,322.11074 306.21732,321.51074 305.73732,321.51074 C 297.57733,320.31074 296.97732,318.03074 296.97732,312.51074 L 296.97732,299.31074 C 299.97732,299.31074 301.05733,299.79074 303.33732,302.07074 L 314.37732,314.19074 C 315.81732,315.75074 316.77732,316.83074 316.77732,318.15074 C 316.77732,319.95074 315.57732,320.91074 311.73732,321.51074 C 311.37732,321.51074 311.13732,322.11074 311.13732,322.95074 C 311.13732,323.79074 311.49732,324.51074 311.85732,324.51074 C 317.37732,324.51074 322.41733,323.79074 327.69732,323.79074 C 332.85732,323.79074 335.13733,324.51074 340.77732,324.51074 C 341.13732,324.51074 341.37732,323.79074 341.37732,322.95074 M 378.83232,322.95074 C 378.83232,322.11074 378.59232,321.51074 378.23232,321.51074 C 369.95233,320.31074 369.47232,318.03074 369.47232,312.51074 L 369.47232,280.95074 C 369.47232,275.55075 369.95233,273.27074 378.23232,272.07074 C 378.59232,271.95074 378.83232,271.35074 378.83232,270.63074 C 378.83232,269.79074 378.59232,269.07074 378.23232,269.07074 C 372.59233,269.07074 370.55232,269.67074 364.07232,269.67074 C 357.47233,269.67074 355.55232,269.07074 349.91232,269.07074 C 349.55232,269.07074 349.19232,269.79074 349.19232,270.63074 C 349.19232,271.35074 349.55232,271.95074 349.91232,272.07074 C 358.07232,273.27074 358.67232,275.55075 358.67232,280.95074 L 358.67232,312.51074 C 358.67232,318.03074 358.07232,320.31074 349.91232,321.51074 C 349.55232,321.51074 349.19232,322.11074 349.19232,322.95074 C 349.19232,323.79074 349.55232,324.51074 349.91232,324.51074 C 355.55232,324.51074 357.47233,323.79074 364.07232,323.79074 C 370.55232,323.79074 372.59233,324.51074 378.23232,324.51074 C 378.59232,324.51074 378.83232,323.79074 378.83232,322.95074 M 442.29545,286.11074 C 442.29545,276.27075 436.17543,269.07074 421.41545,269.07074 C 415.89545,269.07074 411.93544,269.67074 406.77545,269.67074 C 400.17546,269.67074 398.13544,269.07074 392.61545,269.07074 C 392.25545,269.07074 391.89545,269.79074 391.89545,270.63074 C 391.89545,271.35074 392.25545,271.95074 392.61545,272.07074 C 400.77544,273.27074 401.37545,275.55075 401.37545,280.95074 L 401.37545,312.51074 C 401.37545,318.03074 400.77544,320.31074 392.61545,321.51074 C 392.25545,321.51074 391.89545,322.11074 391.89545,322.95074 C 391.89545,323.79074 392.25545,324.51074 392.61545,324.51074 C 398.13544,324.51074 400.17546,323.79074 406.77545,323.79074 C 413.25544,323.79074 415.29545,324.51074 420.93545,324.51074 C 421.29545,324.51074 421.53545,323.79074 421.53545,322.95074 C 421.53545,322.11074 421.29545,321.51074 420.93545,321.51074 C 412.65546,320.31074 412.05545,318.03074 412.05545,312.51074 L 412.05545,302.43074 C 415.05545,302.67074 418.41545,302.91074 422.61545,302.91074 C 433.77544,302.91074 442.29545,295.47073 442.29545,286.11074 M 430.65545,286.11074 C 430.65545,293.67073 426.93544,299.55074 417.69545,299.55074 C 413.49545,299.55074 412.05545,299.19074 412.05545,296.67074 L 412.05545,278.91074 C 412.05545,274.83075 412.29546,272.67074 419.73545,272.67074 C 425.25544,272.67074 430.65545,276.39075 430.65545,286.11074 M 503.7467,307.83074 C 503.9867,307.35074 503.0267,306.51074 502.0667,306.51074 C 501.5867,306.51074 501.2267,306.63074 501.1067,306.87074 C 497.2667,314.91073 489.94669,320.43074 481.9067,320.43074 L 477.8267,320.43074 C 475.0667,320.43074 471.5867,319.35074 471.5867,314.07074 L 471.5867,297.27074 L 477.7067,297.27074 C 483.22669,297.27074 486.3467,298.11075 487.5467,306.27074 C 487.5467,306.63074 488.2667,306.99074 488.9867,306.99074 C 489.8267,306.99074 490.5467,306.63074 490.5467,306.27074 C 490.5467,302.07075 489.9467,299.79074 489.9467,295.83074 C 489.9467,291.87074 490.5467,289.59074 490.5467,285.39074 C 490.5467,285.03074 489.8267,284.67074 488.9867,284.67074 C 488.2667,284.67074 487.5467,285.03074 487.5467,285.39074 C 486.3467,293.55073 483.22669,293.91074 477.7067,293.91074 L 471.5867,293.91074 L 471.5867,279.39074 C 471.5867,274.23075 475.0667,273.15074 477.8267,273.15074 L 481.5467,273.15074 C 487.90669,273.15074 494.1467,275.43075 497.0267,284.79074 C 497.0267,285.15074 497.5067,285.51074 497.9867,285.51074 C 499.1867,285.51074 499.9067,285.03074 499.7867,284.31074 C 498.1067,278.79075 497.2667,274.59074 496.4267,269.07074 C 490.0667,269.31074 483.82669,269.67074 476.7467,269.67074 C 469.78671,269.67074 457.42669,269.31074 452.0267,269.07074 C 451.6667,269.07074 451.4267,269.79074 451.4267,270.63074 C 451.4267,271.35074 451.6667,271.95074 452.0267,272.07074 C 460.30669,273.27074 460.9067,275.55075 460.9067,280.95074 L 460.9067,312.51074 C 460.9067,318.03074 460.30669,320.31074 452.0267,321.51074 C 451.6667,321.51074 451.4267,322.11074 451.4267,322.95074 C 451.4267,323.79074 451.6667,324.51074 452.0267,324.51074 C 457.42669,324.15074 470.86671,323.79074 477.8267,323.79074 C 484.90669,323.79074 490.7867,324.15074 497.1467,324.51074 C 499.1867,318.15075 501.2267,313.35074 503.7467,307.83074 M 575.7467,297.03074 C 575.7467,281.55076 564.46668,269.07074 544.4267,269.07074 C 539.6267,269.07074 533.98669,269.43074 529.0667,269.43074 C 524.1467,269.43074 515.86669,269.31074 512.0267,269.07074 C 511.6667,269.07074 511.4267,269.67074 511.4267,270.51074 C 511.4267,271.35074 511.6667,271.95074 512.0267,272.07074 C 520.30669,273.27074 520.9067,275.55075 520.9067,280.95074 L 520.9067,312.51074 C 520.9067,317.91074 520.30669,320.31074 512.0267,321.51074 C 511.6667,321.51074 511.4267,322.11074 511.4267,322.95074 C 511.4267,323.79074 511.6667,324.39074 512.0267,324.39074 C 515.86669,324.15074 524.1467,324.03074 529.0667,324.03074 C 533.98669,324.03074 539.6267,324.39074 544.4267,324.39074 C 565.78668,324.39074 575.7467,311.67073 575.7467,297.03074 M 564.1067,297.03074 C 564.1067,310.83073 555.10669,320.91074 543.3467,320.91074 L 536.1467,320.67074 C 533.9867,320.67074 531.5867,320.07074 531.5867,316.23074 L 531.5867,277.23074 C 531.5867,273.51074 533.9867,272.79074 536.1467,272.79074 L 543.3467,272.67074 C 555.34669,272.43074 564.1067,282.87076 564.1067,297.03074 M 617.42607,322.95074 C 617.42607,322.11074 617.18607,321.51074 616.82607,321.51074 C 608.54608,320.31074 608.06607,318.03074 608.06607,312.51074 L 608.06607,280.95074 C 608.06607,275.55075 608.54608,273.27074 616.82607,272.07074 C 617.18607,271.95074 617.42607,271.35074 617.42607,270.63074 C 617.42607,269.79074 617.18607,269.07074 616.82607,269.07074 C 611.18608,269.07074 609.14607,269.67074 602.66607,269.67074 C 596.06608,269.67074 594.14607,269.07074 588.50607,269.07074 C 588.14607,269.07074 587.78607,269.79074 587.78607,270.63074 C 587.78607,271.35074 588.14607,271.95074 588.50607,272.07074 C 596.66607,273.27074 597.26607,275.55075 597.26607,280.95074 L 597.26607,312.51074 C 597.26607,318.03074 596.66607,320.31074 588.50607,321.51074 C 588.14607,321.51074 587.78607,322.11074 587.78607,322.95074 C 587.78607,323.79074 588.14607,324.51074 588.50607,324.51074 C 594.14607,324.51074 596.06608,323.79074 602.66607,323.79074 C 609.14607,323.79074 611.18608,324.51074 616.82607,324.51074 C 617.18607,324.51074 617.42607,323.79074 617.42607,322.95074 M 713.6492,322.83074 C 713.6492,321.87074 712.9292,321.27074 712.4492,321.15074 C 702.84921,320.07074 699.3692,315.27073 697.2092,309.15074 L 672.2492,240.15074 C 672.1292,239.67074 671.5292,239.19074 670.5692,239.19074 C 669.7292,239.19074 669.1292,239.55074 668.8892,240.15074 L 640.8092,309.15074 C 637.6892,316.23073 635.28919,320.43074 626.8892,321.15074 C 626.4092,321.27074 625.5692,321.87074 625.5692,322.83074 C 625.4492,323.79074 625.8092,324.51074 626.4092,324.51074 C 632.04919,324.51074 634.5692,323.79074 639.8492,323.79074 C 646.44919,323.79074 648.12921,324.51074 655.2092,324.51074 C 655.6892,324.51074 656.1692,323.79074 656.1692,322.83074 C 656.1692,321.87074 655.9292,321.15074 655.4492,321.15074 C 647.88921,320.79074 645.7292,318.63074 645.7292,315.39074 C 645.7292,313.71074 646.3292,311.67074 647.0492,309.63074 L 653.8892,291.03074 L 678.6092,291.03074 L 685.5692,311.07074 C 686.1692,312.99074 686.6492,314.67074 686.6492,316.11074 C 686.6492,319.11074 684.36919,320.79074 676.5692,321.15074 C 676.0892,321.15074 675.8492,321.87074 675.8492,322.83074 C 675.8492,323.79074 676.3292,324.51074 676.8092,324.51074 C 684.72919,324.51074 688.20921,323.79074 695.6492,323.79074 C 702.24919,323.79074 704.76921,324.51074 712.6892,324.51074 C 713.1692,324.51074 713.6492,323.79074 713.6492,322.83074 M 677.2892,287.19074 L 655.3292,287.19074 L 666.7292,256.47074 L 677.2892,287.19074 M 226.30857,392.43074 C 226.30857,391.47074 225.82857,390.99074 225.46857,390.99074 C 219.82858,390.99074 218.26857,391.71074 212.86857,391.71074 C 207.70858,391.71074 205.42857,390.99074 199.66857,390.99074 C 199.06857,390.99074 198.58857,391.83074 198.58857,392.67074 C 198.58857,393.63074 198.82857,394.35074 199.30857,394.35074 C 204.46857,394.59074 207.34857,396.75074 207.34857,400.59074 C 207.34857,402.15074 206.98857,403.95074 206.14857,405.99074 L 183.10857,459.63074 L 167.50857,427.83074 L 179.02857,406.47074 C 183.34857,398.91075 185.74858,395.19074 193.66857,394.35074 C 194.50857,394.35074 194.98857,393.27074 194.98857,392.43074 C 194.98857,391.47074 194.62857,390.99074 194.26857,390.99074 C 188.62858,390.99074 185.26857,391.71074 181.18857,391.71074 C 175.90858,391.71074 173.14857,390.99074 167.50857,390.99074 C 167.02857,390.99074 166.42857,391.83074 166.42857,392.67074 C 166.42857,393.63074 166.66857,394.35074 167.14857,394.35074 C 172.54857,394.59074 175.18857,396.63074 175.18857,400.23074 C 175.18857,401.79074 174.58857,403.71074 173.38857,405.99074 L 164.74857,422.19074 L 155.98857,404.55074 C 154.90857,402.27074 154.18857,400.47074 154.18857,398.91074 C 154.18857,396.15074 156.82858,394.71074 162.22857,394.35074 C 162.70857,394.35074 162.82857,393.63074 162.82857,392.67074 C 162.82857,391.83074 162.34857,390.99074 161.86857,390.99074 C 153.94858,390.99074 153.46857,391.71074 146.02857,391.71074 C 138.58858,391.71074 139.66857,390.99074 131.74857,390.99074 C 131.26857,390.99074 130.90857,391.83074 130.90857,392.67074 C 130.90857,393.63074 131.62857,394.35074 132.10857,394.35074 C 139.78857,395.19074 140.98858,398.43075 144.82857,406.47074 L 158.02857,434.07074 L 143.86857,460.71074 L 119.02857,404.55074 C 118.42857,403.23074 118.06857,402.03074 118.06857,400.95074 C 118.06857,396.51075 122.50858,394.71074 126.70857,394.35074 C 127.18857,394.35074 127.30857,393.63074 127.30857,392.67074 C 127.30857,391.83074 126.82857,390.99074 126.34857,390.99074 C 118.42858,390.99074 115.90857,391.71074 108.46857,391.71074 C 101.14858,391.71074 100.30857,390.99074 92.388574,390.99074 C 91.788574,390.99074 91.428574,391.83074 91.428574,392.67074 C 91.428574,393.63074 92.148574,394.35074 92.748574,394.35074 C 100.30857,395.19074 103.66858,398.07075 107.38857,406.47074 L 137.50857,475.47074 C 137.74857,476.07074 138.34857,476.43074 139.18857,476.43074 C 140.14857,476.43074 140.50857,476.07074 140.86857,475.47074 L 160.66857,439.59074 L 177.82857,475.47074 C 178.18857,476.07074 178.66857,476.43074 179.50857,476.43074 C 180.46857,476.43074 180.94857,476.19074 181.18857,475.47074 L 211.78857,406.47074 C 214.90857,399.39075 217.54858,395.07074 224.86857,394.35074 C 225.70857,394.35074 226.30857,393.27074 226.30857,392.43074 M 293.0342,447.15074 C 293.0342,430.95076 281.51418,417.27074 261.7142,417.27074 C 241.91422,417.27074 230.3942,430.95076 230.3942,447.15074 C 230.3942,463.23072 241.91422,476.31074 261.7142,476.31074 C 281.51418,476.31074 293.0342,463.23072 293.0342,447.15074 M 281.3942,447.03074 C 281.3942,461.55073 274.43419,472.83074 261.7142,472.83074 C 248.87421,472.83074 242.0342,461.55073 242.0342,447.03074 C 242.0342,432.63076 248.87421,420.63074 261.7142,420.63074 C 274.43419,420.63074 281.3942,432.63076 281.3942,447.03074 M 366.68982,472.95074 C 366.68982,472.11074 366.32982,471.51074 365.96982,471.51074 C 360.80983,470.79074 357.32982,468.15074 353.96982,464.55074 L 334.04982,443.43074 L 347.84982,429.27074 C 350.84982,426.15074 353.24983,423.15074 360.68982,422.07074 C 361.04982,421.95074 361.40982,421.47074 361.40982,420.63074 C 361.40982,419.79074 361.04982,419.07074 360.68982,419.07074 C 357.20983,419.07074 356.00982,419.67074 351.68982,419.67074 C 347.24983,419.67074 343.76982,419.07074 339.68982,419.07074 C 339.32982,419.07074 338.96982,419.79074 338.96982,420.63074 C 338.96982,421.35074 339.20982,421.95074 339.56982,422.07074 C 343.52982,422.67074 344.36982,423.15074 344.36982,425.19074 C 344.36982,426.27074 343.04982,427.95074 341.72982,429.27074 L 328.64982,443.19074 C 326.36983,445.35074 325.04982,445.95074 322.28982,445.95074 L 322.28982,430.95074 C 322.28982,425.55075 322.88983,423.27074 331.04982,422.07074 C 331.52982,421.95074 331.76982,421.35074 331.76982,420.63074 C 331.76982,419.79074 331.52982,419.07074 331.04982,419.07074 C 325.52983,419.07074 323.48982,419.67074 316.88982,419.67074 C 310.40983,419.67074 308.36982,419.07074 302.84982,419.07074 C 302.36982,419.07074 302.12982,419.79074 302.12982,420.63074 C 302.12982,421.35074 302.36982,421.95074 302.84982,422.07074 C 311.00982,423.27074 311.60982,425.55075 311.60982,430.95074 L 311.60982,462.51074 C 311.60982,468.03074 311.00982,470.31074 302.84982,471.51074 C 302.36982,471.51074 302.12982,472.11074 302.12982,472.95074 C 302.12982,473.79074 302.36982,474.51074 302.84982,474.51074 C 308.36982,474.51074 310.40983,473.79074 316.88982,473.79074 C 323.48982,473.79074 325.52983,474.51074 331.04982,474.51074 C 331.52982,474.51074 331.76982,473.79074 331.76982,472.95074 C 331.76982,472.11074 331.52982,471.51074 331.04982,471.51074 C 322.88983,470.31074 322.28982,468.03074 322.28982,462.51074 L 322.28982,449.31074 C 325.28982,449.31074 326.36983,449.79074 328.64982,452.07074 L 339.68982,464.19074 C 341.12982,465.75074 342.08982,466.83074 342.08982,468.15074 C 342.08982,469.95074 340.88982,470.91074 337.04982,471.51074 C 336.68982,471.51074 336.44982,472.11074 336.44982,472.95074 C 336.44982,473.79074 336.80982,474.51074 337.16982,474.51074 C 342.68982,474.51074 347.72983,473.79074 353.00982,473.79074 C 358.16982,473.79074 360.44983,474.51074 366.08982,474.51074 C 366.44982,474.51074 366.68982,473.79074 366.68982,472.95074 M 433.42482,447.15074 C 433.42482,430.95076 421.9048,417.27074 402.10482,417.27074 C 382.30484,417.27074 370.78482,430.95076 370.78482,447.15074 C 370.78482,463.23072 382.30484,476.31074 402.10482,476.31074 C 421.9048,476.31074 433.42482,463.23072 433.42482,447.15074 M 421.78482,447.03074 C 421.78482,461.55073 414.82481,472.83074 402.10482,472.83074 C 389.26484,472.83074 382.42482,461.55073 382.42482,447.03074 C 382.42482,432.63076 389.26484,420.63074 402.10482,420.63074 C 414.82481,420.63074 421.78482,432.63076 421.78482,447.03074 M 492.92045,436.11074 C 492.92045,426.27075 486.80043,419.07074 472.04045,419.07074 C 466.52045,419.07074 462.56044,419.67074 457.40045,419.67074 C 450.80046,419.67074 448.76044,419.07074 443.24045,419.07074 C 442.88045,419.07074 442.52045,419.79074 442.52045,420.63074 C 442.52045,421.35074 442.88045,421.95074 443.24045,422.07074 C 451.40044,423.27074 452.00045,425.55075 452.00045,430.95074 L 452.00045,462.51074 C 452.00045,468.03074 451.40044,470.31074 443.24045,471.51074 C 442.88045,471.51074 442.52045,472.11074 442.52045,472.95074 C 442.52045,473.79074 442.88045,474.51074 443.24045,474.51074 C 448.76044,474.51074 450.80046,473.79074 457.40045,473.79074 C 463.88044,473.79074 465.92045,474.51074 471.56045,474.51074 C 471.92045,474.51074 472.16045,473.79074 472.16045,472.95074 C 472.16045,472.11074 471.92045,471.51074 471.56045,471.51074 C 463.28046,470.31074 462.68045,468.03074 462.68045,462.51074 L 462.68045,452.43074 C 465.68045,452.67074 469.04045,452.91074 473.24045,452.91074 C 484.40044,452.91074 492.92045,445.47073 492.92045,436.11074 M 481.28045,436.11074 C 481.28045,443.67073 477.56044,449.55074 468.32045,449.55074 C 464.12045,449.55074 462.68045,449.19074 462.68045,446.67074 L 462.68045,428.91074 C 462.68045,424.83075 462.92046,422.67074 470.36045,422.67074 C 475.88044,422.67074 481.28045,426.39075 481.28045,436.11074 M 554.3717,457.83074 C 554.6117,457.35074 553.6517,456.51074 552.6917,456.51074 C 552.2117,456.51074 551.8517,456.63074 551.7317,456.87074 C 547.8917,464.91073 540.57169,470.43074 532.5317,470.43074 L 528.4517,470.43074 C 525.6917,470.43074 522.2117,469.35074 522.2117,464.07074 L 522.2117,447.27074 L 528.3317,447.27074 C 533.85169,447.27074 536.9717,448.11075 538.1717,456.27074 C 538.1717,456.63074 538.8917,456.99074 539.6117,456.99074 C 540.4517,456.99074 541.1717,456.63074 541.1717,456.27074 C 541.1717,452.07075 540.5717,449.79074 540.5717,445.83074 C 540.5717,441.87074 541.1717,439.59074 541.1717,435.39074 C 541.1717,435.03074 540.4517,434.67074 539.6117,434.67074 C 538.8917,434.67074 538.1717,435.03074 538.1717,435.39074 C 536.9717,443.55073 533.85169,443.91074 528.3317,443.91074 L 522.2117,443.91074 L 522.2117,429.39074 C 522.2117,424.23075 525.6917,423.15074 528.4517,423.15074 L 532.1717,423.15074 C 538.53169,423.15074 544.7717,425.43075 547.6517,434.79074 C 547.6517,435.15074 548.1317,435.51074 548.6117,435.51074 C 549.8117,435.51074 550.5317,435.03074 550.4117,434.31074 C 548.7317,428.79075 547.8917,424.59074 547.0517,419.07074 C 540.6917,419.31074 534.45169,419.67074 527.3717,419.67074 C 520.41171,419.67074 508.05169,419.31074 502.6517,419.07074 C 502.2917,419.07074 502.0517,419.79074 502.0517,420.63074 C 502.0517,421.35074 502.2917,421.95074 502.6517,422.07074 C 510.93169,423.27074 511.5317,425.55075 511.5317,430.95074 L 511.5317,462.51074 C 511.5317,468.03074 510.93169,470.31074 502.6517,471.51074 C 502.2917,471.51074 502.0517,472.11074 502.0517,472.95074 C 502.0517,473.79074 502.2917,474.51074 502.6517,474.51074 C 508.05169,474.15074 521.49171,473.79074 528.4517,473.79074 C 535.53169,473.79074 541.4117,474.15074 547.7717,474.51074 C 549.8117,468.15075 551.8517,463.35074 554.3717,457.83074 M 626.3717,447.03074 C 626.3717,431.55076 615.09168,419.07074 595.0517,419.07074 C 590.2517,419.07074 584.61169,419.43074 579.6917,419.43074 C 574.7717,419.43074 566.49169,419.31074 562.6517,419.07074 C 562.2917,419.07074 562.0517,419.67074 562.0517,420.51074 C 562.0517,421.35074 562.2917,421.95074 562.6517,422.07074 C 570.93169,423.27074 571.5317,425.55075 571.5317,430.95074 L 571.5317,462.51074 C 571.5317,467.91074 570.93169,470.31074 562.6517,471.51074 C 562.2917,471.51074 562.0517,472.11074 562.0517,472.95074 C 562.0517,473.79074 562.2917,474.39074 562.6517,474.39074 C 566.49169,474.15074 574.7717,474.03074 579.6917,474.03074 C 584.61169,474.03074 590.2517,474.39074 595.0517,474.39074 C 616.41168,474.39074 626.3717,461.67073 626.3717,447.03074 M 614.7317,447.03074 C 614.7317,460.83073 605.73169,470.91074 593.9717,470.91074 L 586.7717,470.67074 C 584.6117,470.67074 582.2117,470.07074 582.2117,466.23074 L 582.2117,427.23074 C 582.2117,423.51074 584.6117,422.79074 586.7717,422.79074 L 593.9717,422.67074 C 605.97169,422.43074 614.7317,432.87076 614.7317,447.03074 M 668.05107,472.95074 C 668.05107,472.11074 667.81107,471.51074 667.45107,471.51074 C 659.17108,470.31074 658.69107,468.03074 658.69107,462.51074 L 658.69107,430.95074 C 658.69107,425.55075 659.17108,423.27074 667.45107,422.07074 C 667.81107,421.95074 668.05107,421.35074 668.05107,420.63074 C 668.05107,419.79074 667.81107,419.07074 667.45107,419.07074 C 661.81108,419.07074 659.77107,419.67074 653.29107,419.67074 C 646.69108,419.67074 644.77107,419.07074 639.13107,419.07074 C 638.77107,419.07074 638.41107,419.79074 638.41107,420.63074 C 638.41107,421.35074 638.77107,421.95074 639.13107,422.07074 C 647.29107,423.27074 647.89107,425.55075 647.89107,430.95074 L 647.89107,462.51074 C 647.89107,468.03074 647.29107,470.31074 639.13107,471.51074 C 638.77107,471.51074 638.41107,472.11074 638.41107,472.95074 C 638.41107,473.79074 638.77107,474.51074 639.13107,474.51074 C 644.77107,474.51074 646.69108,473.79074 653.29107,473.79074 C 659.77107,473.79074 661.81108,474.51074 667.45107,474.51074 C 667.81107,474.51074 668.05107,473.79074 668.05107,472.95074 M 764.2742,472.83074 C 764.2742,471.87074 763.5542,471.27074 763.0742,471.15074 C 753.47421,470.07074 749.9942,465.27073 747.8342,459.15074 L 722.8742,390.15074 C 722.7542,389.67074 722.1542,389.19074 721.1942,389.19074 C 720.3542,389.19074 719.7542,389.55074 719.5142,390.15074 L 691.4342,459.15074 C 688.3142,466.23073 685.91419,470.43074 677.5142,471.15074 C 677.0342,471.27074 676.1942,471.87074 676.1942,472.83074 C 676.0742,473.79074 676.4342,474.51074 677.0342,474.51074 C 682.67419,474.51074 685.1942,473.79074 690.4742,473.79074 C 697.07419,473.79074 698.75421,474.51074 705.8342,474.51074 C 706.3142,474.51074 706.7942,473.79074 706.7942,472.83074 C 706.7942,471.87074 706.5542,471.15074 706.0742,471.15074 C 698.51421,470.79074 696.3542,468.63074 696.3542,465.39074 C 696.3542,463.71074 696.9542,461.67074 697.6742,459.63074 L 704.5142,441.03074 L 729.2342,441.03074 L 736.1942,461.07074 C 736.7942,462.99074 737.2742,464.67074 737.2742,466.11074 C 737.2742,469.11074 734.99419,470.79074 727.1942,471.15074 C 726.7142,471.15074 726.4742,471.87074 726.4742,472.83074 C 726.4742,473.79074 726.9542,474.51074 727.4342,474.51074 C 735.35419,474.51074 738.83421,473.79074 746.2742,473.79074 C 752.87419,473.79074 755.39421,474.51074 763.3142,474.51074 C 763.7942,474.51074 764.2742,473.79074 764.2742,472.83074 M 727.9142,437.19074 L 705.9542,437.19074 L 717.3542,406.47074 L 727.9142,437.19074"
       id="text2383" />
  </g>
</svg>
